<svg width="477" height="108" viewBox="0 0 477 108" fill="none" xmlns="http://www.w3.org/2000/svg">
<path d="M398.578 17.4497C403.536 17.4497 407.314 13.6768 407.314 8.72487C407.314 3.77292 403.536 0 398.578 0C393.62 0 389.842 3.77292 389.842 8.72487C389.842 13.441 393.856 17.4497 398.578 17.4497Z" fill="#FEFBE6"/>
<path d="M79.3622 27.3536H68.0291C64.4875 27.3536 64.0153 27.8252 60.0015 31.8339L23.641 68.384V11.0829C23.8771 9.66803 22.6965 8.25319 21.2799 8.01738C21.0438 8.01738 20.8077 8.01738 20.5716 8.01738H3.09963C1.68299 7.78157 0.266342 8.9606 0.0302349 10.3754C0.0302349 10.6113 0.0302349 10.8471 0.0302349 11.0829V18.8645C-0.205872 20.2793 0.974663 21.6942 2.39131 21.93C2.62741 21.93 2.86352 21.93 3.09963 21.93H9.47452V92.6721H3.09963C1.68299 92.4363 0.266342 93.6153 0.0302349 95.0302C0.0302349 95.266 0.0302349 95.5018 0.0302349 95.7376V103.519C-0.205872 104.934 0.974663 106.349 2.39131 106.585C2.62741 106.585 2.86352 106.585 3.09963 106.585H29.5436C30.9603 106.821 32.3769 105.877 32.613 104.462C32.613 104.227 32.613 103.991 32.613 103.755V95.7376C32.8491 94.3228 31.6686 92.9079 30.252 92.6721C30.0158 92.6721 29.7797 92.6721 29.5436 92.6721H23.4048V86.7769L37.0991 72.8643L61.182 102.104C64.2514 106.113 64.2514 106.113 68.9735 106.113H79.3622C80.7789 106.349 82.1955 105.17 82.1955 103.755C82.1955 103.519 82.1955 103.283 82.1955 103.048V95.7376C82.4316 94.3228 81.2511 92.9079 79.8345 92.6721C79.5984 92.6721 79.3623 92.6721 79.1261 92.6721H70.6263L46.7795 63.1962L68.5013 41.0304H79.1261C80.5428 41.2662 81.7233 40.0871 81.9594 38.6723C81.9594 38.4365 81.9594 38.2007 81.9594 38.2007V30.1832C82.1955 28.7684 80.6992 27.2134 79.3622 27.3536Z" fill="#FEFBE6"/>
<path d="M172.869 92.6727H166.494V58.9523C166.494 38.9087 153.745 25.9393 134.148 25.9393C125.884 25.7035 117.856 28.5332 111.718 34.1926V30.4197C111.954 29.0048 110.773 27.59 109.356 27.59C109.12 27.59 108.884 27.59 108.648 27.59H91.6485C90.2318 27.3542 88.8152 28.2974 88.5791 29.9481C88.5791 30.1839 88.5791 30.4197 88.5791 30.6555V38.4371C88.343 39.852 89.5235 41.2668 90.9401 41.5026C91.1762 41.5026 91.4123 41.5026 91.6485 41.5026H98.0234V92.9086H91.6485C90.2318 92.6727 88.8152 93.8518 88.5791 95.2666C88.5791 95.5024 88.5791 95.7382 88.5791 95.974V103.756C88.5791 105.171 89.5235 106.585 91.1762 106.585C91.4123 106.585 91.4123 106.585 91.6485 106.585H118.092C119.509 106.821 120.926 105.642 121.162 104.227C121.162 103.991 121.162 103.756 121.162 103.756V95.7382C121.398 94.3234 120.217 92.9086 118.801 92.6727C118.565 92.6727 118.329 92.6727 118.092 92.6727H111.954V61.3104C111.954 48.341 120.926 39.1445 133.439 39.1445C145.953 39.1445 152.8 46.9262 152.8 60.3672V92.6727H146.425C145.009 92.4369 143.592 93.616 143.592 95.2666C143.592 95.5024 143.592 95.7382 143.592 95.974V103.756C143.356 105.171 144.536 106.585 145.953 106.821C146.189 106.821 146.425 106.821 146.661 106.821H173.105C174.522 107.057 175.939 105.878 176.175 104.463C176.175 104.227 176.175 103.991 176.175 103.756V95.7382C176.411 94.3234 175.23 92.9086 173.814 92.6727C173.342 92.6727 173.105 92.6727 172.869 92.6727Z" fill="#FEFBE6"/>
<path d="M216.063 25.9386C193.633 25.9386 175.689 44.0958 175.689 66.2616C175.689 66.4974 175.689 66.7333 175.689 67.2049C175.217 89.3707 192.925 107.528 215.119 108C215.355 108 215.591 108 215.827 108C238.257 108 256.438 89.8423 256.438 67.6765C256.438 67.4407 256.438 67.2049 256.438 66.9691C256.91 44.8032 239.194 26.4102 217 25.9386C216.786 25.9386 216.274 25.9386 216.063 25.9386ZM216.063 94.5585C201.425 94.5585 190.091 82.2965 190.091 66.7333C190.091 51.17 201.188 39.3796 215.827 39.3796C230.466 39.3796 242.035 51.6416 242.035 67.2049C242.035 82.7681 230.702 94.5585 216.063 94.5585Z" fill="#FEFBE6"/>
<path d="M373.784 27.3537H346.632C345.215 27.1178 343.799 28.0611 343.562 29.7117C343.562 29.9475 343.562 30.1833 343.562 30.4191V38.2008C343.326 39.6156 344.507 41.0305 345.924 41.2663C346.16 41.2663 346.396 41.2663 346.632 41.2663H352.771L339.785 83.0041L321.368 29.7117C320.896 28.2969 319.48 27.3537 318.063 27.3537H312.632C311.216 27.3537 309.799 28.2969 309.327 29.7117L291.147 83.0041L278.161 41.0305H284.3C285.716 41.2663 287.133 40.0872 287.369 38.6724C287.369 38.4366 287.369 38.2008 287.369 37.965V30.1833C287.605 28.7685 286.425 27.3537 285.008 27.3537C284.772 27.3537 284.536 27.3537 284.3 27.3537H256.911C255.495 27.1178 254.078 28.2969 253.842 29.7117C253.842 29.9475 253.842 30.1833 253.842 30.1833V37.965C253.606 39.3798 254.786 40.7947 256.203 41.0305C256.439 41.0305 256.675 41.0305 256.675 41.0305H263.05L284.536 104.227C285.008 105.642 286.425 106.585 287.841 106.585H293.744C295.161 106.585 296.577 105.642 297.049 104.227L314.994 52.3492L332.938 104.227C333.41 105.642 334.827 106.585 336.243 106.585H342.146C343.562 106.585 344.979 105.642 345.451 104.227L367.173 41.0305H373.548C374.965 41.2663 376.381 40.0872 376.617 38.6724C376.617 38.4366 376.617 38.2008 376.617 38.2008V30.4191C376.854 29.0043 375.673 27.5895 374.256 27.5895C374.256 27.3537 374.02 27.3537 373.784 27.3537Z" fill="#FEFBE6"/>
<path d="M412.277 92.6721H405.902V30.419C406.138 29.0042 404.958 27.5893 403.541 27.5893C403.305 27.5893 403.069 27.5893 403.069 27.5893H385.597C384.18 27.3535 382.764 28.5325 382.764 29.9474C382.764 30.1832 382.764 30.419 382.764 30.6548V38.4364C382.528 39.8513 383.708 41.2661 385.125 41.5019C385.361 41.5019 385.597 41.5019 385.833 41.5019H392.208V92.9079H380.639C379.222 92.6721 377.805 93.8511 377.569 95.2659C377.569 95.5018 377.569 95.7376 377.569 95.9734V103.755C377.333 105.17 378.514 106.585 379.93 106.82C380.166 106.82 380.403 106.82 380.639 106.82H412.277C413.694 107.056 415.11 105.877 415.346 104.462C415.346 104.227 415.346 103.991 415.346 103.755V95.7376C415.583 94.3227 414.402 92.9079 412.985 92.6721C412.749 92.6721 412.513 92.6721 412.277 92.6721Z" fill="#FEFBE6"/>
<path d="M473.664 66.2621H466.109C464.692 66.0263 463.275 67.2054 463.039 68.6202C463.039 68.856 463.039 69.0918 463.039 69.3276V83.9477C463.275 89.3712 459.026 94.0874 453.595 94.3232C446.04 94.3232 442.734 91.2577 442.734 83.7119V41.2666H461.15C462.567 41.5024 463.984 40.3234 464.22 38.9085C464.22 38.6727 464.22 38.4369 464.22 38.2011V30.4195C464.456 29.0046 463.275 27.5898 461.859 27.5898C461.623 27.5898 461.387 27.5898 461.387 27.5898H442.97V11.3191C443.206 9.90424 442.262 8.48939 440.609 8.25359C440.373 8.25359 440.137 8.25359 439.901 8.25359H431.873C430.457 8.01778 429.04 9.19681 428.804 10.6117C428.804 10.8475 428.804 11.0833 428.804 11.3191V27.8256H420.304C418.887 27.5898 417.471 28.7688 417.471 30.1836C417.471 30.4195 417.471 30.4195 417.471 30.6553V38.4369C417.235 39.8517 418.415 41.2666 419.832 41.5024C420.068 41.5024 420.304 41.5024 420.54 41.5024H429.04V84.6551C429.04 98.8035 438.248 108 452.651 108C467.525 108 476.97 99.0393 476.97 85.3625V69.5634C477.206 68.1486 476.025 66.7337 474.609 66.4979C474.372 66.2621 474.136 66.2621 473.664 66.2621Z" fill="#FEFBE6"/>
</svg>
